<svg class="icon" style="" viewBox="0 0 1024 1024" xmlns="http://www.w3.org/2000/svg" width="128" height="128"><defs><style type="text/css"></style></defs><path d="M768 426.666667H341.333333a17.066667 17.066667 0 1 0 0 34.133333h426.666667a17.066667 17.066667 0 1 0 0-34.133333zM341.333333 324.266667h170.666667a17.066667 17.066667 0 1 0 0-34.133334H341.333333a17.066667 17.066667 0 1 0 0 34.133334zM768 563.2H341.333333a17.066667 17.066667 0 1 0 0 34.133333h426.666667a17.066667 17.066667 0 1 0 0-34.133333zM768 699.733333H341.333333a17.066667 17.066667 0 1 0 0 34.133334h426.666667a17.066667 17.066667 0 1 0 0-34.133334zM768 836.266667H341.333333a17.066667 17.066667 0 1 0 0 34.133333h426.666667a17.066667 17.066667 0 1 0 0-34.133333z" p-id="2458" fill="#666666"></path><path d="M836.266667 248.9344V0H102.4v938.666667h85.333333v85.333333h733.866667V334.267733l-85.333333-85.333333z m-153.6-105.335467l153.6 153.6L863.3344 324.266667H682.666667V143.598933zM136.533333 904.533333V34.133333h665.6v180.667734L672.6656 85.333333H187.733333v819.2H136.533333z m85.333334 85.333334V119.466667h426.666666v238.933333h238.933334v631.466667H221.866667z" p-id="2459" fill="#666666"></path></svg>